<svg width="360" height="360" viewBox="0 0 360 360" fill="none" xmlns="http://www.w3.org/2000/svg">
<path d="M178.035 0.0161462C177.906 0.0278747 177.496 0.0689244 177.126 0.0982456C168.604 0.866461 160.622 5.46403 155.566 12.5304C152.751 16.4595 150.95 20.9163 150.27 25.637C150.029 27.2849 150 27.7716 150 30.0059C150 32.2401 150.029 32.7269 150.27 34.3747C151.9 45.6399 159.918 55.1048 170.792 58.6116C172.739 59.2391 174.792 59.6672 177.126 59.9252C178.035 60.0249 181.965 60.0249 182.874 59.9252C186.903 59.4795 190.317 58.4826 193.683 56.7644C194.199 56.5005 194.299 56.4301 194.229 56.3715C194.182 56.3363 191.982 53.3866 189.343 49.8211L184.545 43.3412L178.534 34.4451C175.226 29.5543 172.504 25.5549 172.481 25.5549C172.457 25.5491 172.434 29.5015 172.422 34.3278C172.405 42.7782 172.399 43.1183 172.293 43.3177C172.141 43.605 172.023 43.7223 171.777 43.8513C171.589 43.9452 171.425 43.9628 170.54 43.9628H169.525L169.255 43.7927C169.079 43.6813 168.95 43.5347 168.862 43.3646L168.739 43.1007L168.751 31.3429L168.768 19.5793L168.95 19.3505C169.044 19.2274 169.243 19.0691 169.384 18.9928C169.625 18.8755 169.718 18.8638 170.733 18.8638C171.93 18.8638 172.129 18.9107 172.44 19.2509C172.528 19.3447 175.783 24.2472 179.677 30.1525C183.572 36.0578 188.897 44.1211 191.513 48.0795L196.264 55.2749L196.504 55.1166C198.633 53.7326 200.886 51.7622 202.669 49.7097C206.463 45.3526 208.909 40.0396 209.73 34.3747C209.971 32.7269 210 32.2401 210 30.0059C210 27.7716 209.971 27.2849 209.73 25.637C208.1 14.3718 200.082 4.90692 189.208 1.40011C187.29 0.778498 185.249 0.350408 182.962 0.0923813C182.399 0.0337389 178.522 -0.0307677 178.035 0.0161462ZM190.317 18.1601C190.598 18.3008 190.827 18.5706 190.909 18.8521C190.956 19.0046 190.968 22.2651 190.956 29.613L190.938 40.1569L189.079 37.3069L187.214 34.4568V26.7923C187.214 21.837 187.238 19.0515 187.273 18.9166C187.367 18.5882 187.572 18.3302 187.853 18.1777C188.094 18.0546 188.182 18.0428 189.103 18.0428C189.971 18.0428 190.123 18.0546 190.317 18.1601Z" fill="white"/>
<path d="M285.883 79.0992C288.852 79.0992 291.259 76.6924 291.259 73.7235C291.259 70.7545 288.852 68.3477 285.883 68.3477C282.914 68.3477 280.508 70.7545 280.508 73.7235C280.508 76.6924 282.914 79.0992 285.883 79.0992Z" fill="#00D8FF"/>
<path d="M285.883 62.7942C293.1 62.7942 299.804 63.8299 304.859 65.5691C310.949 67.6654 314.693 70.8437 314.693 73.7217C314.693 76.7205 310.725 80.0976 304.185 82.2632C299.241 83.9012 292.734 84.7575 285.883 84.7575C278.859 84.7575 272.209 83.9545 267.208 82.2455C260.882 80.0834 257.072 76.6636 257.072 73.7217C257.072 70.8668 260.648 67.7134 266.652 65.6207C271.726 63.853 278.596 62.7942 285.883 62.7942Z" stroke="#00D8FF" stroke-width="2.57146" stroke-miterlimit="10"/>
<path d="M276.37 68.2907C279.975 62.0391 284.222 56.7486 288.255 53.2399C293.114 49.0118 297.738 47.356 300.231 48.7933C302.828 50.2909 303.771 55.4162 302.38 62.1652C301.329 67.2674 298.82 73.3308 295.397 79.2662C291.888 85.3508 287.87 90.7106 283.892 94.1891C278.859 98.5895 273.991 100.181 271.444 98.7121C268.971 97.2856 268.026 92.6133 269.211 86.3652C270.213 81.0818 272.728 74.6028 276.37 68.2907Z" stroke="#00D8FF" stroke-width="2.57146" stroke-miterlimit="10"/>
<path d="M276.379 79.2787C272.764 73.0324 270.301 66.7115 269.274 61.4654C268.038 55.1445 268.912 50.3105 271.403 48.8697C273.998 47.3668 278.909 49.1096 284.061 53.6842C287.956 57.1431 291.955 62.3448 295.388 68.2748C298.907 74.3541 301.545 80.5116 302.57 85.6938C303.869 92.2527 302.817 97.2643 300.271 98.7371C297.8 100.167 293.281 98.6536 288.459 94.5054C284.387 91.0003 280.03 85.5854 276.379 79.2787Z" stroke="#00D8FF" stroke-width="2.57146" stroke-miterlimit="10"/>
<g clip-path="url(#clip0_58_126)">
<path d="M354.141 150H305.859C302.623 150 300 152.623 300 155.859V204.141C300 207.377 302.623 210 305.859 210H354.141C357.377 210 360 207.377 360 204.141V155.859C360 152.623 357.377 150 354.141 150Z" fill="#3178C6"/>
<path d="M354.141 150H305.859C302.623 150 300 152.623 300 155.859V204.141C300 207.377 302.623 210 305.859 210H354.141C357.377 210 360 207.377 360 204.141V155.859C360 152.623 357.377 150 354.141 150Z" fill="#3178C6"/>
<path fill-rule="evenodd" clip-rule="evenodd" d="M337.141 197.745V203.612C338.095 204.1 339.223 204.467 340.525 204.711C341.827 204.956 343.2 205.078 344.642 205.078C346.049 205.078 347.384 204.944 348.65 204.675C349.915 204.406 351.025 203.963 351.979 203.346C352.932 202.729 353.687 201.922 354.244 200.926C354.8 199.93 355.078 198.698 355.078 197.232C355.078 196.168 354.919 195.236 354.601 194.436C354.283 193.635 353.825 192.924 353.226 192.3C352.627 191.677 351.908 191.118 351.071 190.623C350.233 190.128 349.289 189.66 348.237 189.22C347.467 188.902 346.776 188.594 346.165 188.295C345.553 187.995 345.034 187.689 344.606 187.378C344.178 187.066 343.848 186.736 343.615 186.388C343.383 186.039 343.267 185.645 343.267 185.205C343.267 184.802 343.371 184.438 343.579 184.115C343.787 183.791 344.08 183.513 344.459 183.28C344.838 183.048 345.303 182.868 345.853 182.74C346.403 182.611 347.014 182.547 347.687 182.547C348.176 182.547 348.693 182.584 349.237 182.657C349.781 182.73 350.328 182.844 350.878 182.996C351.428 183.149 351.963 183.342 352.483 183.574C353.003 183.806 353.483 184.075 353.923 184.38V178.899C353.03 178.557 352.055 178.303 350.997 178.138C349.94 177.973 348.726 177.891 347.357 177.891C345.963 177.891 344.642 178.04 343.395 178.34C342.148 178.639 341.051 179.107 340.103 179.742C339.156 180.378 338.407 181.187 337.857 182.171C337.306 183.155 337.031 184.331 337.031 185.7C337.031 187.448 337.536 188.939 338.544 190.174C339.553 191.408 341.084 192.453 343.139 193.309C343.946 193.639 344.698 193.962 345.394 194.28C346.091 194.598 346.694 194.928 347.201 195.27C347.708 195.612 348.109 195.985 348.402 196.388C348.696 196.792 348.842 197.25 348.842 197.763C348.842 198.142 348.751 198.494 348.567 198.817C348.384 199.141 348.106 199.422 347.733 199.661C347.36 199.899 346.895 200.085 346.339 200.22C345.783 200.354 345.132 200.422 344.386 200.422C343.114 200.422 341.855 200.199 340.608 199.752C339.36 199.306 338.205 198.637 337.141 197.745ZM327.279 183.291H334.805V178.477H313.828V183.291H321.317V204.727H327.279V183.291Z" fill="white"/>
</g>
<g clip-path="url(#clip1_58_126)">
<mask id="mask0_58_126" style="mask-type:luminance" maskUnits="userSpaceOnUse" x="256" y="268" width="60" height="37">
<path d="M256 268.5H316V304.5H256V268.5Z" fill="white"/>
</mask>
<g mask="url(#mask0_58_126)">
<path fill-rule="evenodd" clip-rule="evenodd" d="M286 268.5C278 268.5 273 272.5 271 280.5C274 276.5 277.5 275 281.5 276C283.782 276.57 285.413 278.227 287.219 280.059C290.16 283.044 293.564 286.5 301 286.5C309 286.5 314 282.5 316 274.5C313 278.5 309.5 280 305.5 279C303.218 278.43 301.587 276.773 299.781 274.941C296.84 271.956 293.436 268.5 286 268.5ZM271 286.5C263 286.5 258 290.5 256 298.5C259 294.5 262.5 293 266.5 294C268.782 294.571 270.413 296.227 272.219 298.059C275.16 301.044 278.564 304.5 286 304.5C294 304.5 299 300.5 301 292.5C298 296.5 294.5 298 290.5 297C288.218 296.43 286.587 294.773 284.781 292.941C281.84 289.956 278.436 286.5 271 286.5Z" fill="#38BDF8"/>
</g>
</g>
<g clip-path="url(#clip2_58_126)">
<path d="M97.3174 63.5549C97.1974 63.4274 97.0699 63.2999 96.9424 63.1799C96.8149 63.0599 96.6949 62.9249 96.5674 62.8049C96.4399 62.6849 96.3199 62.5499 96.1924 62.4299C96.0649 62.3099 95.9449 62.1749 95.8174 62.0549C95.6899 61.9349 95.5699 61.7999 95.4424 61.6799C95.3149 61.5599 95.1949 61.4249 95.0674 61.3049C94.9399 61.1849 94.8199 61.0499 94.6924 60.9299C98.4126 64.586 100.544 69.5596 100.625 74.7749C100.625 87.2024 88.0099 97.3124 72.4999 97.3124C63.8149 97.3124 56.0449 94.1399 50.8774 89.1674L51.2524 89.5424L51.6274 89.9174L52.0024 90.2924L52.3774 90.6674L52.7524 91.0424L53.1274 91.4174L53.5024 91.7924C58.6624 96.9749 66.6049 100.312 75.4999 100.312C91.0099 100.312 103.625 90.2024 103.625 77.8124C103.625 72.5174 101.345 67.4999 97.3174 63.5549Z" fill="black"/>
<path d="M98.75 74.775C98.75 86.1825 86.9975 95.43 72.5 95.43C58.0025 95.43 46.25 86.1825 46.25 74.775C46.25 67.7025 50.75 61.455 57.665 57.75C64.58 54.045 68.885 50.25 72.5 50.25C76.115 50.25 79.205 53.3475 87.335 57.75C94.25 61.455 98.75 67.7025 98.75 74.775Z" fill="#FBF0DF"/>
<path d="M98.7499 74.7749C98.7463 73.3095 98.5444 71.8513 98.1499 70.4399C96.1024 95.4149 65.6374 96.6149 53.6599 89.1449C59.0442 93.3182 65.6885 95.5347 72.4999 95.4299C86.9749 95.4299 98.7499 86.1674 98.7499 74.7749Z" fill="#F6DECE"/>
<path d="M62.3975 56.3775C65.75 54.3675 70.205 50.595 74.585 50.5875C73.9112 50.3697 73.2081 50.2559 72.5 50.25C70.685 50.25 68.75 51.1875 66.3125 52.5975C65.465 53.0925 64.5875 53.64 63.6575 54.21C61.91 55.29 59.9075 56.5125 57.6575 57.735C50.5175 61.5975 46.25 67.965 46.25 74.775C46.25 75.075 46.25 75.375 46.25 75.6675C50.795 59.61 59.0525 58.3875 62.3975 56.3775Z" fill="#FFFEFC"/>
<path fill-rule="evenodd" clip-rule="evenodd" d="M70.3401 52.1475C70.3506 53.9184 69.9788 55.6708 69.2501 57.2848C68.5213 58.8989 67.4529 60.3367 66.1176 61.5C65.9076 61.6875 66.0726 62.0475 66.3426 61.9425C68.8701 60.96 72.2826 58.02 70.8426 52.0875C70.7826 51.75 70.3401 51.84 70.3401 52.1475ZM72.0426 52.1475C72.9603 53.6448 73.5433 55.3229 73.7517 57.0667C73.9602 58.8104 73.789 60.5786 73.2501 62.25C73.1601 62.5125 73.4826 62.7375 73.6626 62.52C75.3051 60.42 76.7376 56.25 72.4476 51.75C72.2301 51.555 71.8926 51.855 72.0426 52.1175V52.1475ZM74.1126 52.02C75.5497 53.0374 76.7519 54.3512 77.6382 55.8727C78.5244 57.3942 79.0741 59.0881 79.2501 60.84C79.2425 60.9032 79.2595 60.9668 79.2976 61.0177C79.3356 61.0687 79.3918 61.103 79.4545 61.1136C79.5172 61.1242 79.5816 61.1103 79.6343 61.0747C79.687 61.0391 79.724 60.9846 79.7376 60.9225C80.4276 58.305 80.0376 53.8425 74.3601 51.525C74.0601 51.405 73.8651 51.81 74.1126 51.99V52.02ZM60.2676 59.82C61.9771 59.3093 63.5598 58.4443 64.9127 57.2813C66.2657 56.1183 67.3585 54.6834 68.1201 53.07C68.2551 52.8 68.6826 52.905 68.6151 53.205C67.3176 59.205 62.9751 60.4575 60.2751 60.2925C59.9901 60.3 59.9976 59.9025 60.2676 59.82Z" fill="#CCBEA7"/>
<path d="M72.5 97.3125C56.99 97.3125 44.375 87.2025 44.375 74.775C44.375 67.275 49.01 60.2775 56.7725 56.085C59.0225 54.885 60.95 53.6775 62.6675 52.62C63.6125 52.035 64.505 51.4875 65.3675 50.9775C68 49.4175 70.25 48.375 72.5 48.375C74.75 48.375 76.715 49.275 79.175 50.73C79.925 51.1575 80.675 51.6225 81.4775 52.1325C83.345 53.2875 85.4525 54.5925 88.2275 56.085C95.99 60.2775 100.625 67.2675 100.625 74.775C100.625 87.2025 88.01 97.3125 72.5 97.3125ZM72.5 50.25C70.685 50.25 68.75 51.1875 66.3125 52.5975C65.465 53.0925 64.5875 53.64 63.6575 54.21C61.91 55.29 59.9075 56.5125 57.6575 57.735C50.5175 61.5975 46.25 67.965 46.25 74.775C46.25 86.1675 58.025 95.4375 72.5 95.4375C86.975 95.4375 98.75 86.1675 98.75 74.775C98.75 67.965 94.4825 61.5975 87.335 57.75C84.5 56.25 82.2875 54.84 80.495 53.73C79.6775 53.2275 78.9275 52.7625 78.245 52.35C75.9725 51 74.315 50.25 72.5 50.25Z" fill="black"/>
<path d="M77.7874 80.2501C77.4505 81.63 76.6836 82.8671 75.5974 83.7826C74.782 84.573 73.7264 85.0692 72.5974 85.1926C71.4346 85.0887 70.3419 84.5913 69.4999 83.7826C68.4249 82.8628 67.6688 81.6262 67.3399 80.2501C67.329 80.1684 67.337 80.0853 67.3632 80.0071C67.3894 79.929 67.4331 79.8579 67.491 79.7992C67.5489 79.7406 67.6195 79.696 67.6973 79.6688C67.7751 79.6417 67.8581 79.6327 67.9399 79.6426H77.1949C77.2762 79.6339 77.3583 79.6438 77.4352 79.6715C77.512 79.6992 77.5816 79.744 77.6387 79.8025C77.6957 79.861 77.7387 79.9317 77.7645 80.0092C77.7903 80.0867 77.7981 80.1691 77.7874 80.2501Z" fill="#B71422"/>
<path d="M69.4998 83.8426C70.3401 84.6519 71.4288 85.1539 72.5898 85.2676C73.7482 85.1523 74.834 84.6503 75.6723 83.8426C75.9405 83.5927 76.1911 83.3245 76.4223 83.0401C75.9603 82.516 75.3959 82.0919 74.7639 81.7939C74.1319 81.496 73.4456 81.3305 72.7473 81.3076C72.0001 81.3253 71.2684 81.5243 70.6151 81.8875C69.9619 82.2507 69.4067 82.7673 68.9973 83.3926C69.1698 83.5501 69.3198 83.7001 69.4998 83.8426Z" fill="#FF6164"/>
<path d="M69.6199 83.2496C69.9917 82.769 70.4677 82.3789 71.012 82.1087C71.5563 81.8385 72.1547 81.6952 72.7624 81.6896C73.8855 81.7228 74.9557 82.1749 75.7624 82.9571C75.9349 82.7696 76.0999 82.5746 76.2574 82.3796C75.3032 81.4709 74.0423 80.9543 72.7249 80.9321C72.0208 80.9382 71.3268 81.1001 70.6927 81.4061C70.0586 81.7121 69.5002 82.1547 69.0574 82.7021C69.2347 82.8948 69.4225 83.0776 69.6199 83.2496Z" fill="black"/>
<path d="M72.5674 85.6424C71.3176 85.5329 70.1415 85.0043 69.2299 84.1424C68.069 83.1605 67.2518 81.8336 66.8974 80.3549C66.872 80.2233 66.8763 80.0876 66.9101 79.9579C66.9438 79.8281 67.0061 79.7075 67.0924 79.6049C67.1952 79.4808 67.325 79.3818 67.4719 79.3155C67.6188 79.2493 67.7788 79.2174 67.9399 79.2224H77.1949C77.3558 79.2191 77.5153 79.2516 77.6619 79.3178C77.8086 79.384 77.9386 79.4821 78.0424 79.6049C78.1279 79.7079 78.1891 79.8288 78.2216 79.9586C78.254 80.0884 78.2569 80.2239 78.2299 80.3549C77.8755 81.8336 77.0584 83.1605 75.8974 84.1424C74.9878 85.0028 73.8146 85.5313 72.5674 85.6424ZM67.9399 80.0924C67.8199 80.0924 67.7899 80.1449 67.7824 80.1599C68.0995 81.4422 68.8166 82.5902 69.8299 83.4374C70.5709 84.1674 71.5343 84.6293 72.5674 84.7499C73.5979 84.6307 74.5602 84.1746 75.3049 83.4524C76.3151 82.6037 77.0294 81.456 77.3449 80.1749C77.3286 80.151 77.3059 80.132 77.2794 80.1201C77.253 80.1081 77.2237 80.1038 77.1949 80.1074L67.9399 80.0924Z" fill="black"/>
<path d="M83.9148 80.7149C86.338 80.7149 88.3023 79.5598 88.3023 78.1349C88.3023 76.71 86.338 75.5549 83.9148 75.5549C81.4917 75.5549 79.5273 76.71 79.5273 78.1349C79.5273 79.5598 81.4917 80.7149 83.9148 80.7149Z" fill="#FEBBD0"/>
<path d="M61.2125 80.7149C63.6356 80.7149 65.5999 79.5598 65.5999 78.1349C65.5999 76.71 63.6356 75.5549 61.2125 75.5549C58.7893 75.5549 56.825 76.71 56.825 78.1349C56.825 79.5598 58.7893 80.7149 61.2125 80.7149Z" fill="#FEBBD0"/>
<path fill-rule="evenodd" clip-rule="evenodd" d="M63.2749 77.1C64.0926 77.1014 64.8923 76.8603 65.5728 76.4072C66.2534 75.954 66.7842 75.3091 67.0982 74.5541C67.4121 73.7991 67.495 72.968 67.3364 72.1659C67.1778 71.3637 66.7848 70.6267 66.2072 70.048C65.6295 69.4693 64.8932 69.075 64.0914 68.9149C63.2895 68.7549 62.4583 68.8363 61.7027 69.1488C60.9471 69.4614 60.3013 69.991 59.8469 70.6708C59.3925 71.3505 59.1499 72.1498 59.1499 72.9675C59.1499 74.0622 59.5843 75.1121 60.3576 75.8869C61.131 76.6617 62.1802 77.098 63.2749 77.1ZM81.8524 77.1C82.671 77.1059 83.4729 76.8686 84.1564 76.4181C84.8399 75.9677 85.3743 75.3244 85.6917 74.5698C86.009 73.8152 86.0952 72.9834 85.9391 72.1798C85.7831 71.3762 85.3919 70.6371 84.8151 70.0561C84.2384 69.4752 83.5021 69.0786 82.6997 68.9167C81.8973 68.7548 81.0648 68.8349 80.308 69.1467C79.5511 69.4586 78.9039 69.9883 78.4485 70.6685C77.9931 71.3487 77.7499 72.1489 77.7499 72.9675C77.7479 74.0589 78.1785 75.1066 78.9475 75.8812C79.7164 76.6558 80.761 77.094 81.8524 77.1Z" fill="black"/>
<path fill-rule="evenodd" clip-rule="evenodd" d="M61.9998 73.23C62.3072 73.2315 62.6081 73.1417 62.8644 72.972C63.1207 72.8023 63.3208 72.5604 63.4395 72.2768C63.5581 71.9933 63.59 71.6809 63.5309 71.3792C63.4719 71.0776 63.3246 70.8003 63.1078 70.5824C62.891 70.3645 62.6143 70.2159 62.313 70.1554C62.0116 70.0949 61.6991 70.1252 61.415 70.2425C61.1308 70.3597 60.8879 70.5587 60.717 70.8142C60.5461 71.0697 60.4548 71.3701 60.4548 71.6775C60.4548 72.0879 60.6174 72.4817 60.9069 72.7726C61.1964 73.0636 61.5894 73.228 61.9998 73.23ZM80.5773 73.23C80.8847 73.2315 81.1856 73.1417 81.4419 72.972C81.6982 72.8023 81.8983 72.5604 82.017 72.2768C82.1357 71.9933 82.1675 71.6809 82.1084 71.3792C82.0494 71.0776 81.9021 70.8003 81.6853 70.5824C81.4685 70.3645 81.1918 70.2159 80.8905 70.1554C80.5891 70.0949 80.2766 70.1252 79.9925 70.2425C79.7083 70.3597 79.4654 70.5587 79.2945 70.8142C79.1236 71.0697 79.0323 71.3701 79.0323 71.6775C79.0323 72.0854 79.1928 72.4769 79.4791 72.7674C79.7654 73.0579 80.1545 73.2241 80.5623 73.23H80.5773Z" fill="white"/>
</g>
<g clip-path="url(#clip3_58_126)">
<path opacity="0.993" d="M181.387 300.005C181.546 299.985 181.687 300.025 181.809 300.126C186.29 305.594 190.506 311.257 194.458 317.112C197.385 321.518 199.874 326.176 201.928 331.087C205.207 339.834 203.5 347.444 196.808 353.917C190.952 358.866 184.205 360.794 176.568 359.7C167.44 357.839 161.235 352.558 157.955 343.858C157.101 341.025 156.82 338.134 157.112 335.183C157.598 330.105 158.803 325.206 160.726 320.486C161.527 318.56 162.571 316.793 163.858 315.185C164.908 316.435 165.912 317.72 166.87 319.04C167.314 319.504 167.775 319.945 168.255 320.365C171.92 313.093 176.297 306.306 181.387 300.005Z" fill="#FF5B11"/>
<path d="M180.544 309.763C184.964 314.891 188.96 320.352 192.531 326.148C193.651 328.066 194.574 330.073 195.302 332.171C196.818 338.136 195.191 343.055 190.423 346.929C185.81 350.175 180.751 351.139 175.243 349.821C169.304 347.978 165.87 343.982 164.943 337.834C164.717 335.895 164.918 334.008 165.545 332.171C166.439 329.902 167.523 327.734 168.798 325.666C170.002 323.899 171.207 322.132 172.412 320.365C175.149 316.846 177.859 313.312 180.544 309.763Z" fill="#FF9758"/>
</g>
<rect x="44" y="256" width="60" height="60" fill="black"/>
<path d="M61.9225 285.736C62.446 284.823 62.1253 283.666 61.206 283.152C60.2867 282.639 59.1171 282.963 58.5935 283.877L52.4479 294.601C51.9243 295.515 52.2451 296.671 53.1644 297.185C54.0836 297.698 55.2533 297.374 55.7768 296.461L61.9225 285.736Z" fill="#C5F74F"/>
<path d="M75.1693 277.514C75.6929 276.6 75.3721 275.443 74.4528 274.93C73.5335 274.416 72.3639 274.741 71.8404 275.654L65.6947 286.378C65.1711 287.292 65.4919 288.449 66.4112 288.962C67.3305 289.476 68.5001 289.151 69.0237 288.238L75.1693 277.514Z" fill="#C5F74F"/>
<path d="M95.5521 277.514C96.0757 276.6 95.7549 275.444 94.8356 274.93C93.9164 274.417 92.7467 274.741 92.2232 275.654L86.0775 286.379C85.554 287.292 85.8747 288.449 86.794 288.963C87.7133 289.476 88.8829 289.152 89.4065 288.238L95.5521 277.514Z" fill="#C5F74F"/>
<path d="M82.3012 285.736C82.8247 284.823 82.5039 283.666 81.5846 283.152C80.6654 282.639 79.4957 282.963 78.9722 283.877L72.8265 294.601C72.303 295.515 72.6238 296.671 73.543 297.185C74.4623 297.698 75.6319 297.374 76.1555 296.461L82.3012 285.736Z" fill="#C5F74F"/>
<g clip-path="url(#clip4_58_126)">
<path d="M44.5409 193.678C44.9225 190.499 44.8082 190.033 47.1763 190.548L47.7775 190.601C49.5985 190.683 51.9805 190.308 53.38 189.657C56.3925 188.26 58.1788 185.926 55.2083 186.539C48.4325 187.937 47.9667 185.643 47.9667 185.643C55.1216 175.027 58.1125 161.551 55.5308 158.252C48.4893 149.254 36.3005 153.509 36.0965 153.62L36.0316 153.632C34.6928 153.354 33.1945 153.188 31.5113 153.161C28.4451 153.11 26.1184 153.964 24.3535 155.303C24.3535 155.303 2.60932 146.345 3.6209 166.569C3.83604 170.871 9.78777 199.124 16.8863 190.59C19.4808 187.47 21.9881 184.831 21.9881 184.831C23.2332 185.659 24.7238 186.081 26.2872 185.929L26.408 185.826C26.3702 186.213 26.3869 186.592 26.4564 187.041C24.628 189.084 25.1653 189.443 21.5092 190.195C17.8104 190.958 19.9834 192.315 21.4019 192.67C23.1219 193.1 27.101 193.709 29.7903 189.945L29.6832 190.375C30.4006 190.949 30.3521 194.5 30.4538 197.037C30.5557 199.574 30.7255 201.942 31.2427 203.337C31.7599 204.733 32.3701 208.329 37.175 207.299C41.1908 206.438 44.2611 205.2 44.5409 193.678Z" fill="black" stroke="black" stroke-width="5.03773"/>
<path d="M55.2089 186.539C48.4325 187.937 47.9666 185.642 47.9666 185.642C55.1215 175.026 58.1124 161.549 55.5313 158.251C48.4897 149.254 36.3004 153.509 36.097 153.62L36.0315 153.631C34.6927 153.353 33.1944 153.188 31.5104 153.16C28.4442 153.11 26.1183 153.964 24.3534 155.303C24.3534 155.303 2.60884 146.345 3.62015 166.569C3.83529 170.871 9.78689 199.124 16.8857 190.59C19.4803 187.47 21.9873 184.831 21.9873 184.831C23.2324 185.659 24.7231 186.08 26.2858 185.929L26.4071 185.826C26.3694 186.213 26.3867 186.592 26.4558 187.041C24.627 189.084 25.1644 189.443 21.5086 190.195C17.8095 190.958 19.9826 192.315 21.4014 192.67C23.1214 193.1 27.1008 193.709 29.7896 189.945L29.6823 190.375C30.3989 190.949 30.9021 194.108 30.8177 196.972C30.7334 199.835 30.6771 201.802 31.2417 203.337C31.8063 204.873 32.369 208.329 37.1748 207.299C41.1906 206.438 43.2715 204.208 43.561 200.488C43.7665 197.844 44.2314 198.235 44.2607 195.87L44.6336 194.751C45.0636 191.166 44.7019 190.009 47.176 190.547L47.7772 190.6C49.5982 190.683 51.9814 190.307 53.3802 189.657C56.3921 188.259 58.1785 185.926 55.2086 186.539H55.2089Z" fill="#336791"/>
<path d="M30.0805 188.594C29.8939 195.264 30.1274 201.981 30.7801 203.614C31.4332 205.246 32.8308 208.422 37.6371 207.392C41.6524 206.531 43.1134 204.865 43.7474 201.188C44.2143 198.483 45.1145 190.969 45.2299 189.43" stroke="white" stroke-width="1.67924" stroke-linecap="round" stroke-linejoin="round"/>
<path d="M24.3199 155.154C24.3199 155.154 2.56047 146.26 3.57205 166.484C3.78719 170.787 9.7392 199.04 16.8379 190.506C19.432 187.386 21.778 184.938 21.778 184.938" stroke="white" stroke-width="1.67924" stroke-linecap="round" stroke-linejoin="round"/>
<path d="M36.0732 153.53C35.32 153.767 48.1771 148.83 55.4839 158.167C58.065 161.465 55.074 174.942 47.9193 185.558" stroke="white" stroke-width="1.67924" stroke-linecap="round" stroke-linejoin="round"/>
<path d="M47.9189 185.558C47.9189 185.558 48.3852 187.853 55.1618 186.455C58.1309 185.841 56.344 188.176 53.3327 189.574C50.8614 190.721 45.3207 191.015 45.2301 189.43C44.9972 185.341 48.1462 186.583 47.9189 185.558ZM47.9189 185.558C47.7135 184.636 46.3053 183.73 45.3738 181.471C44.5605 179.5 34.2198 164.383 48.2414 166.628C48.7551 166.522 44.5845 153.291 31.4622 153.076C18.3429 152.861 18.7734 169.21 18.7734 169.21" stroke="white" stroke-width="1.67924" stroke-linecap="round" stroke-linejoin="bevel"/>
<path d="M26.4079 186.957C24.5789 189 25.1168 189.359 21.4607 190.112C17.7616 190.874 19.935 192.231 21.3534 192.586C23.0734 193.016 27.0528 193.625 29.7416 189.861C30.5604 188.714 29.7367 186.885 28.612 186.419C28.0685 186.194 27.3419 185.912 26.4079 186.957Z" stroke="white" stroke-width="1.67924" stroke-linecap="round" stroke-linejoin="round"/>
<path d="M26.2882 186.921C26.1039 185.72 26.6829 184.291 27.3034 182.618C28.2359 180.109 30.3874 177.599 28.6663 169.64C27.3834 163.708 18.7787 168.405 18.7733 169.21C18.7681 170.014 19.1625 173.286 18.6296 177.097C17.9342 182.07 21.7938 186.275 26.2382 185.845" stroke="white" stroke-width="1.67924" stroke-linecap="round" stroke-linejoin="round"/>
<path d="M24.2407 169.089C24.2019 169.364 24.7436 170.097 25.4499 170.195C26.155 170.293 26.7586 169.72 26.7968 169.446C26.8351 169.171 26.2941 168.868 25.5875 168.77C24.882 168.672 24.2782 168.815 24.2409 169.089H24.2407Z" fill="white" stroke="white" stroke-width="0.559743"/>
<path d="M45.7175 168.529C45.7558 168.804 45.2148 169.537 44.5083 169.635C43.8027 169.733 43.1992 169.16 43.1605 168.886C43.1232 168.611 43.6643 168.309 44.3701 168.21C45.0759 168.112 45.6793 168.255 45.7175 168.529V168.529Z" fill="white" stroke="white" stroke-width="0.279871"/>
<path d="M48.2416 166.628C48.3578 168.783 47.7775 170.25 47.7043 172.544C47.596 175.878 49.2938 179.694 46.7356 183.515" stroke="white" stroke-width="1.67924" stroke-linecap="round" stroke-linejoin="round"/>
</g>
<path d="M116.435 172.455H119.659L123.977 182.994H124.148L128.466 172.455H131.69V187H129.162V177.007H129.027L125.007 186.957H123.118L119.098 176.986H118.963V187H116.435V172.455ZM136.044 191.091C135.694 191.091 135.369 191.063 135.071 191.006C134.777 190.954 134.543 190.892 134.368 190.821L134.964 188.818C135.339 188.927 135.672 188.979 135.966 188.974C136.259 188.97 136.518 188.877 136.74 188.697C136.967 188.522 137.159 188.229 137.315 187.817L137.536 187.227L133.58 176.091H136.307L138.821 184.33H138.935L141.456 176.091H144.19L139.822 188.321C139.619 188.899 139.349 189.393 139.013 189.805C138.677 190.222 138.265 190.539 137.777 190.757C137.294 190.98 136.716 191.091 136.044 191.091ZM156.378 176.091V178.08H150.107V176.091H156.378ZM151.655 173.477H154.226V183.719C154.226 184.064 154.278 184.33 154.382 184.514C154.491 184.694 154.633 184.817 154.808 184.884C154.983 184.95 155.178 184.983 155.391 184.983C155.552 184.983 155.698 184.971 155.831 184.947C155.968 184.924 156.072 184.902 156.143 184.884L156.577 186.893C156.439 186.941 156.243 186.993 155.987 187.05C155.736 187.107 155.429 187.14 155.064 187.149C154.42 187.168 153.84 187.071 153.324 186.858C152.808 186.64 152.398 186.304 152.095 185.849C151.797 185.395 151.65 184.827 151.655 184.145V173.477ZM163.169 187.213C162.104 187.213 161.181 186.979 160.4 186.51C159.618 186.041 159.012 185.385 158.581 184.543C158.155 183.7 157.942 182.715 157.942 181.588C157.942 180.461 158.155 179.474 158.581 178.626C159.012 177.779 159.618 177.121 160.4 176.652C161.181 176.183 162.104 175.949 163.169 175.949C164.235 175.949 165.158 176.183 165.939 176.652C166.721 177.121 167.324 177.779 167.75 178.626C168.181 179.474 168.397 180.461 168.397 181.588C168.397 182.715 168.181 183.7 167.75 184.543C167.324 185.385 166.721 186.041 165.939 186.51C165.158 186.979 164.235 187.213 163.169 187.213ZM163.184 185.153C163.761 185.153 164.244 184.995 164.632 184.678C165.021 184.356 165.31 183.925 165.499 183.385C165.693 182.845 165.79 182.244 165.79 181.581C165.79 180.913 165.693 180.31 165.499 179.77C165.31 179.225 165.021 178.792 164.632 178.47C164.244 178.148 163.761 177.987 163.184 177.987C162.592 177.987 162.099 178.148 161.706 178.47C161.318 178.792 161.027 179.225 160.833 179.77C160.643 180.31 160.549 180.913 160.549 181.581C160.549 182.244 160.643 182.845 160.833 183.385C161.027 183.925 161.318 184.356 161.706 184.678C162.099 184.995 162.592 185.153 163.184 185.153ZM175.337 187.213C174.272 187.213 173.349 186.979 172.567 186.51C171.786 186.041 171.18 185.385 170.749 184.543C170.323 183.7 170.11 182.715 170.11 181.588C170.11 180.461 170.323 179.474 170.749 178.626C171.18 177.779 171.786 177.121 172.567 176.652C173.349 176.183 174.272 175.949 175.337 175.949C176.403 175.949 177.326 176.183 178.107 176.652C178.888 177.121 179.492 177.779 179.918 178.626C180.349 179.474 180.565 180.461 180.565 181.588C180.565 182.715 180.349 183.7 179.918 184.543C179.492 185.385 178.888 186.041 178.107 186.51C177.326 186.979 176.403 187.213 175.337 187.213ZM175.352 185.153C175.929 185.153 176.412 184.995 176.8 184.678C177.189 184.356 177.478 183.925 177.667 183.385C177.861 182.845 177.958 182.244 177.958 181.581C177.958 180.913 177.861 180.31 177.667 179.77C177.478 179.225 177.189 178.792 176.8 178.47C176.412 178.148 175.929 177.987 175.352 177.987C174.76 177.987 174.267 178.148 173.874 178.47C173.486 178.792 173.195 179.225 173.001 179.77C172.811 180.31 172.717 180.913 172.717 181.581C172.717 182.244 172.811 182.845 173.001 183.385C173.195 183.925 173.486 184.356 173.874 184.678C174.267 184.995 174.76 185.153 175.352 185.153ZM185.318 172.455V187H182.747V172.455H185.318ZM201.545 178.974L199.201 179.23C199.135 178.993 199.019 178.771 198.853 178.562C198.692 178.354 198.474 178.186 198.2 178.058C197.925 177.93 197.589 177.866 197.191 177.866C196.656 177.866 196.206 177.982 195.842 178.214C195.482 178.446 195.304 178.747 195.309 179.116C195.304 179.434 195.42 179.692 195.657 179.891C195.898 180.089 196.296 180.253 196.85 180.381L198.711 180.778C199.743 181.001 200.51 181.354 201.012 181.837C201.519 182.32 201.774 182.952 201.779 183.733C201.774 184.42 201.573 185.026 201.175 185.551C200.782 186.072 200.236 186.479 199.535 186.773C198.834 187.066 198.029 187.213 197.12 187.213C195.785 187.213 194.71 186.934 193.896 186.375C193.081 185.812 192.596 185.028 192.44 184.024L194.947 183.783C195.06 184.275 195.302 184.647 195.671 184.898C196.04 185.149 196.521 185.274 197.113 185.274C197.724 185.274 198.214 185.149 198.583 184.898C198.957 184.647 199.144 184.337 199.144 183.967C199.144 183.655 199.023 183.397 198.782 183.193C198.545 182.99 198.176 182.833 197.674 182.724L195.813 182.334C194.767 182.116 193.993 181.749 193.491 181.233C192.989 180.712 192.74 180.054 192.745 179.259C192.74 178.586 192.923 178.004 193.292 177.511C193.666 177.014 194.184 176.631 194.847 176.361C195.515 176.086 196.284 175.949 197.156 175.949C198.434 175.949 199.44 176.221 200.174 176.766C200.913 177.31 201.37 178.046 201.545 178.974ZM209.347 176.091V178.08H203.075V176.091H209.347ZM204.624 173.477H207.195V183.719C207.195 184.064 207.247 184.33 207.351 184.514C207.46 184.694 207.602 184.817 207.777 184.884C207.952 184.95 208.146 184.983 208.359 184.983C208.52 184.983 208.667 184.971 208.8 184.947C208.937 184.924 209.041 184.902 209.112 184.884L209.545 186.893C209.408 186.941 209.212 186.993 208.956 187.05C208.705 187.107 208.397 187.14 208.033 187.149C207.389 187.168 206.809 187.071 206.293 186.858C205.777 186.64 205.367 186.304 205.064 185.849C204.766 185.395 204.619 184.827 204.624 184.145V173.477ZM214.636 187.22C213.945 187.22 213.322 187.097 212.768 186.851C212.219 186.6 211.783 186.231 211.461 185.743C211.144 185.255 210.985 184.654 210.985 183.939C210.985 183.323 211.099 182.814 211.326 182.412C211.554 182.009 211.864 181.688 212.257 181.446C212.65 181.205 213.092 181.022 213.585 180.899C214.082 180.771 214.596 180.679 215.126 180.622C215.765 180.556 216.284 180.497 216.681 180.445C217.079 180.388 217.368 180.303 217.548 180.189C217.733 180.071 217.825 179.888 217.825 179.642V179.599C217.825 179.064 217.666 178.65 217.349 178.357C217.032 178.063 216.575 177.916 215.978 177.916C215.349 177.916 214.849 178.054 214.48 178.328C214.115 178.603 213.869 178.927 213.741 179.301L211.341 178.96C211.53 178.297 211.842 177.743 212.278 177.298C212.714 176.848 213.246 176.512 213.876 176.29C214.506 176.062 215.202 175.949 215.964 175.949C216.49 175.949 217.013 176.01 217.534 176.134C218.055 176.257 218.53 176.46 218.961 176.744C219.392 177.024 219.738 177.405 219.998 177.888C220.263 178.371 220.396 178.974 220.396 179.699V187H217.924V185.501H217.839C217.683 185.804 217.463 186.089 217.179 186.354C216.899 186.614 216.547 186.825 216.12 186.986C215.699 187.142 215.204 187.22 214.636 187.22ZM215.304 185.331C215.82 185.331 216.267 185.229 216.646 185.026C217.025 184.817 217.316 184.543 217.52 184.202C217.728 183.861 217.832 183.489 217.832 183.087V181.801C217.752 181.867 217.614 181.929 217.42 181.986C217.231 182.043 217.018 182.092 216.781 182.135C216.544 182.178 216.31 182.215 216.078 182.249C215.846 182.282 215.645 182.31 215.474 182.334C215.091 182.386 214.747 182.471 214.444 182.589C214.141 182.708 213.902 182.874 213.727 183.087C213.552 183.295 213.464 183.565 213.464 183.896C213.464 184.37 213.637 184.727 213.983 184.969C214.328 185.21 214.769 185.331 215.304 185.331ZM227.74 187.213C226.651 187.213 225.716 186.974 224.934 186.496C224.158 186.018 223.559 185.357 223.137 184.514C222.721 183.667 222.512 182.691 222.512 181.588C222.512 180.48 222.725 179.502 223.152 178.655C223.578 177.803 224.179 177.14 224.956 176.666C225.737 176.188 226.66 175.949 227.725 175.949C228.611 175.949 229.395 176.112 230.076 176.439C230.763 176.761 231.31 177.218 231.717 177.81C232.124 178.397 232.356 179.083 232.413 179.869H229.956C229.856 179.344 229.619 178.906 229.245 178.555C228.876 178.2 228.381 178.023 227.761 178.023C227.235 178.023 226.774 178.165 226.376 178.449C225.978 178.728 225.668 179.131 225.446 179.656C225.228 180.182 225.119 180.812 225.119 181.545C225.119 182.289 225.228 182.928 225.446 183.463C225.663 183.993 225.969 184.403 226.362 184.692C226.76 184.976 227.226 185.118 227.761 185.118C228.14 185.118 228.478 185.047 228.777 184.905C229.08 184.758 229.333 184.547 229.537 184.273C229.74 183.998 229.88 183.664 229.956 183.271H232.413C232.351 184.043 232.124 184.727 231.731 185.324C231.338 185.916 230.803 186.38 230.126 186.716C229.449 187.047 228.654 187.213 227.74 187.213ZM236.868 183.577L236.861 180.473H237.273L241.193 176.091H244.197L239.375 181.46H238.842L236.868 183.577ZM234.524 187V172.455H237.095V187H234.524ZM241.371 187L237.82 182.036L239.553 180.224L244.446 187H241.371Z" fill="white"/>
<defs>
<clipPath id="clip0_58_126">
<rect width="60" height="60" fill="white" transform="translate(300 150)"/>
</clipPath>
<clipPath id="clip1_58_126">
<rect width="60" height="36.6667" fill="white" transform="translate(256 268.5)"/>
</clipPath>
<clipPath id="clip2_58_126">
<rect width="60" height="52.5" fill="white" transform="translate(44 48)"/>
</clipPath>
<clipPath id="clip3_58_126">
<rect width="46.5455" height="60" fill="white" transform="translate(157 300)"/>
</clipPath>
<clipPath id="clip4_58_126">
<rect width="58.2067" height="60" fill="white" transform="translate(1 150)"/>
</clipPath>
</defs>
</svg>
